<?xml version="1.0" encoding="UTF-8" standalone="no"?>
<svg
   xmlns:dc="http://purl.org/dc/elements/1.1/"
   xmlns:cc="http://creativecommons.org/ns#"
   xmlns:rdf="http://www.w3.org/1999/02/22-rdf-syntax-ns#"
   xmlns:svg="http://www.w3.org/2000/svg"
   xmlns="http://www.w3.org/2000/svg"
   xmlns:sodipodi="http://sodipodi.sourceforge.net/DTD/sodipodi-0.dtd"
   xmlns:inkscape="http://www.inkscape.org/namespaces/inkscape"
   width="25pt"
   height="25pt"
   viewBox="0 0 25 25"
   version="1.1"
   id="svg28"
   sodipodi:docname="facebook(1).svg"
   inkscape:version="0.92.4 (5da689c313, 2019-01-14)">
  <metadata
     id="metadata34">
    <rdf:RDF>
      <cc:Work
         rdf:about="">
        <dc:format>image/svg+xml</dc:format>
        <dc:type
           rdf:resource="http://purl.org/dc/dcmitype/StillImage" />
      </cc:Work>
    </rdf:RDF>
  </metadata>
  <defs
     id="defs32" />
  <sodipodi:namedview
     pagecolor="#ffffff"
     bordercolor="#666666"
     borderopacity="1"
     objecttolerance="10"
     gridtolerance="10"
     guidetolerance="10"
     inkscape:pageopacity="0"
     inkscape:pageshadow="2"
     inkscape:window-width="1600"
     inkscape:window-height="837"
     id="namedview30"
     showgrid="false"
     inkscape:zoom="20.04"
     inkscape:cx="16.666667"
     inkscape:cy="16.666667"
     inkscape:window-x="-8"
     inkscape:window-y="-8"
     inkscape:window-maximized="1"
     inkscape:current-layer="svg28" />
  <g
     id="surface1"
     transform="matrix(0.31599001,0,0,0.31599001,0,2.5005136e-4)">
    <path
       style="fill:#1775d1;fill-opacity:1;fill-rule:nonzero;stroke:none"
       d="M 21.875,0 H 3.125 C 1.402344,0 0,1.402344 0,3.125 v 18.75 C 0,23.597656 1.402344,25 3.125,25 h 18.75 C 23.597656,25 25,23.597656 25,21.875 V 3.125 C 25,1.402344 23.597656,0 21.875,0 Z m 0,0"
       id="path23"
       inkscape:connector-curvature="0" />
    <path
       style="fill:#fafafa;fill-opacity:1;fill-rule:nonzero;stroke:none"
       d="M 21.09375,12.5 H 17.1875 V 9.375 c 0,-0.863281 0.699219,-0.78125 1.5625,-0.78125 h 1.5625 V 4.6875 h -3.125 C 14.597656,4.6875 12.5,6.785156 12.5,9.375 V 12.5 H 9.375 v 3.90625 H 12.5 V 25 h 4.6875 v -8.59375 h 2.34375 z m 0,0"
       id="path25"
       inkscape:connector-curvature="0" />
  </g>
</svg>
